<svg width="144" height="144" viewBox="0 0 144 144" fill="none" xmlns="http://www.w3.org/2000/svg">
<path fill-rule="evenodd" clip-rule="evenodd" d="M110.999 130.193H31.999V123.47H110.999V130.193ZM110.999 118.428H31.999V106.661H110.999V118.428ZM66.2715 14.5859C71.0845 14.586 75.1931 14.7729 78.5908 15.1504C82.0823 15.528 85.0561 16.0455 87.5098 16.7061C90.0583 17.3668 92.1837 18.1703 93.8828 19.1143C95.5798 20.0571 97.1353 21.0954 98.5498 22.2266C102.703 25.6251 105.775 29.7864 107.758 34.6953C109.834 39.509 110.869 44.6074 110.869 49.9873C110.869 52.6288 110.593 55.318 110.027 58.0537C109.555 60.697 108.796 63.2516 107.758 65.7061C106.814 68.0645 105.678 70.2799 104.357 72.3555C103.036 74.3377 101.528 76.044 99.8291 77.46C98.0362 78.9696 96.1958 80.2924 94.3086 81.4248C92.4218 82.5568 90.2947 83.4931 87.9365 84.248C85.5765 85.0032 82.8792 85.5755 79.8584 85.9531C76.8391 86.3303 73.3005 86.5175 69.2441 86.5176H57.6279V94.8262H31.999V14.5859H66.2715ZM57.6279 63.0088H68.5303C69.7575 63.0088 71.321 62.9655 73.209 62.8711C75.1905 62.6821 77.0299 62.208 78.7285 61.4531C80.5207 60.6985 82.0311 59.4744 83.2578 57.7773C84.5789 55.9844 85.2387 53.5265 85.2393 50.4131C85.2392 47.298 84.5794 44.931 83.2578 43.3262C81.9367 41.6286 80.3273 40.4051 78.4404 39.6504C76.6489 38.8966 74.7176 38.4658 72.6436 38.3711C70.6613 38.1823 68.955 38.0947 67.5391 38.0947H57.6279V63.0088Z" fill="white"/>
</svg>
