<svg width="676" height="69" viewBox="0 0 676 69" fill="none" xmlns="http://www.w3.org/2000/svg">
<path d="M294.861 68.7998H0V65.2891H294.861V68.7998ZM294.861 61.7793H0V54.7588H294.861V61.7793ZM20.3896 0C23.253 6.42008e-05 25.6974 0.111348 27.7188 0.335938C29.7957 0.560557 31.5647 0.868748 33.0244 1.26172C34.5406 1.65484 35.8056 2.13275 36.8164 2.69434C37.826 3.25526 38.7513 3.87295 39.5928 4.5459C42.0639 6.56779 43.8919 9.04338 45.0713 11.9639C46.3064 14.8277 46.9219 17.8609 46.9219 21.0615C46.9218 22.6329 46.7584 24.2329 46.4219 25.8604C46.1411 27.4329 45.689 28.9529 45.0713 30.4131C44.5099 31.8162 43.8336 33.1343 43.0479 34.3691C42.2616 35.5485 41.3644 36.5639 40.3535 37.4062C39.2871 38.3042 38.1929 39.091 37.0703 39.7646C35.9477 40.4382 34.6814 40.9952 33.2783 41.4443C31.8743 41.8936 30.2698 42.2343 28.4727 42.459C26.6764 42.6834 24.5714 42.7949 22.1582 42.7949H15.2471V47.7383H0V0H20.3896ZM77.6777 28.0547C76.0491 28.1109 74.5558 28.248 73.208 28.4727C71.861 28.6973 70.6803 29.117 69.6699 29.7344C68.7155 30.352 67.9551 31.2239 67.3936 32.3467C66.8882 33.4698 66.6397 34.9048 66.6396 36.6455V47.7383H52.6533V15.584H65.7969V20.5547H65.9678C66.2485 19.9935 66.6425 19.3436 67.1475 18.6143C67.6523 17.83 68.3229 17.0992 69.1631 16.4268C70.0617 15.7529 71.1883 15.1895 72.5361 14.7402C73.94 14.235 75.6563 13.9863 77.6777 13.9863V28.0547ZM98.2871 47.7383H84.3008V15.584H98.2871V47.7383ZM133.896 13.9863C136.143 13.9863 138.363 14.3789 140.554 15.165C142.798 15.9509 144.569 16.902 145.86 18.0244C146.478 18.5855 147.095 19.2615 147.712 20.0469C148.386 20.7767 148.975 21.7343 149.48 22.9131C149.986 24.0924 150.412 25.5263 150.749 27.2109C151.086 28.8393 151.249 30.8056 151.249 33.1074V47.7383H137.271V36.8164C137.27 35.9743 137.211 35.0177 137.099 33.9512C137.042 32.8279 136.787 31.76 136.338 30.749C135.889 29.7383 135.161 28.8926 134.15 28.2188C133.196 27.489 131.787 27.129 129.935 27.1289C127.914 27.1293 126.373 27.5229 125.307 28.3086C124.24 29.0387 123.454 29.9358 122.948 31.0029C122.443 32.0138 122.128 33.081 122.016 34.2041C121.96 35.2701 121.934 36.1688 121.934 36.8984V47.7383H107.947V15.584H121.008V20.5547H121.179C121.516 19.9936 121.962 19.3434 122.522 18.6143C123.14 17.8289 123.927 17.1001 124.881 16.4268C125.892 15.7528 127.131 15.1895 128.591 14.7402C130.051 14.2352 131.819 13.9864 133.896 13.9863ZM177.946 15.584H184.687V26.1963H177.946V47.7383H163.961V26.1963H157.05V15.584H163.961V0H177.946V15.584ZM212.871 13.9863C216.409 13.9863 219.697 14.661 222.729 16.0088C225.761 17.3005 228.377 19.0954 230.566 21.3975C232.756 23.6998 234.466 26.426 235.701 29.5703C236.937 32.659 237.553 35.9728 237.553 39.5107C237.553 40.4636 237.527 41.193 237.471 41.6982C237.415 42.1474 237.329 42.6583 237.217 43.2197H202.169C202.449 44.965 203.037 46.4704 203.924 47.7383H189.855C188.86 45.0275 188.354 42.143 188.354 39.0859C188.355 35.8295 188.944 32.6842 190.123 29.6523C191.359 26.6198 193.074 23.9539 195.265 21.6514C197.454 19.3493 200.036 17.4948 203.012 16.0908C206.045 14.6867 209.333 13.9864 212.871 13.9863ZM294.861 47.7383H277.921C278.286 47.3995 278.635 47.0484 278.942 46.6689C279.896 45.4348 280.565 44.1151 280.958 42.7129C281.407 41.3088 281.637 39.9856 281.637 38.75C281.636 37.3466 281.381 35.9434 280.876 34.54C280.37 33.136 279.611 31.8981 278.6 30.8311C277.645 29.7093 276.412 28.8101 274.897 28.1367C273.437 27.4066 271.747 27.0401 269.838 27.04C267.817 27.0404 266.047 27.4071 264.531 28.1367C263.073 28.81 261.839 29.7366 260.829 30.9141C259.875 32.0367 259.14 33.302 258.635 34.7051C258.186 36.0523 257.963 37.4027 257.963 38.75C257.963 40.5468 258.245 42.2046 258.807 43.7207C259.424 45.1799 260.263 46.4451 261.329 47.5117C261.409 47.5913 261.501 47.6615 261.583 47.7383H245.334C244.432 44.9743 243.977 42.0085 243.977 38.8389C243.977 34.9083 244.626 31.3971 245.917 28.3086C247.208 25.2203 248.918 22.6056 251.052 20.4717C253.242 18.3376 255.718 16.7331 258.47 15.666C261.276 14.5439 264.168 13.9866 267.143 13.9863C269.221 13.9863 271.023 14.2089 272.539 14.6582C274.109 15.107 275.428 15.639 276.494 16.2559C277.616 16.8167 278.516 17.4076 279.189 18.0244C279.919 18.6421 280.483 19.1538 280.876 19.5469V0H294.861V47.7383ZM212.953 25.7783C211.157 25.7786 209.61 26.0607 208.318 26.6221C207.029 27.1831 205.965 27.8857 205.124 28.7266C204.282 29.5686 203.633 30.4667 203.184 31.4209C202.791 32.3187 202.508 33.1057 202.34 33.7793H223.573C223.405 33.1056 223.09 32.3189 222.641 31.4209C222.247 30.4671 221.632 29.5682 220.79 28.7266C219.948 27.8843 218.879 27.1836 217.588 26.6221C216.296 26.0605 214.75 25.7783 212.953 25.7783ZM15.2471 28.8086H21.7334C22.4635 28.8086 23.3935 28.7827 24.5166 28.7266C25.6955 28.6141 26.7902 28.332 27.8008 27.8828C28.8669 27.4338 29.7654 26.7058 30.4951 25.6963C31.2811 24.6296 31.6735 23.1677 31.6738 21.3154C31.6738 19.462 31.2814 18.0534 30.4951 17.0986C29.7091 16.0887 28.7514 15.3611 27.6289 14.9121C26.5631 14.4637 25.4145 14.2067 24.1807 14.1504C23.0013 14.0381 21.986 13.9863 21.1436 13.9863H15.2471V28.8086ZM98.2871 10.6133H84.3008V0H98.2871V10.6133Z" fill="#0D6FFC"/>
<g clip-path="url(#clip0_22_14)">
<path d="M413.59 11.7822C414.42 10.9505 414.835 9.94059 414.835 8.69307C414.835 7.44554 414.42 6.37624 413.59 5.60396C412.76 4.77228 411.753 4.35643 410.508 4.35643H371.327C370.082 4.29703 369.075 4.71287 368.245 5.54455C367.415 6.37624 367 7.38614 367 8.63366C367 9.88119 367.415 10.9505 368.245 11.7228C369.075 12.5545 370.082 12.9703 371.327 12.9703H386.324V58.5941C386.324 59.901 386.798 61.0297 387.687 61.9208C388.576 62.8119 389.702 63.2871 391.006 63.2871C392.31 63.2871 393.437 62.8119 394.326 61.9208C395.215 61.0297 395.689 59.901 395.689 58.5941V13.0297H410.626C411.871 13.0297 412.938 12.6139 413.709 11.7822H413.59Z" fill="#3E66B0"/>
<path d="M440.797 23.7822C437.952 22.0594 434.514 21.1683 430.661 21.1683C426.808 21.1683 423.133 22.0594 420.051 23.901C416.909 25.6832 414.479 28.2376 412.701 31.5049C410.982 34.7129 410.093 38.396 410.093 42.4356C410.093 46.4752 411.041 50.1584 412.879 53.3663C414.716 56.5743 417.324 59.1287 420.644 60.9109C423.904 62.6931 427.697 63.6436 431.787 63.6436C434.099 63.6436 436.589 63.2277 439.138 62.3366C441.686 61.5049 443.82 60.3168 445.539 59.0099C446.547 58.297 447.021 57.2871 447.021 56.1584C447.021 55.0297 446.488 53.901 445.421 53.0693C444.709 52.4158 443.82 52.1188 442.694 52.1188C441.568 52.1188 440.619 52.4752 439.79 53.0693C438.841 53.7822 437.596 54.4356 436.115 54.9109C434.633 55.4455 433.151 55.6832 431.787 55.6832C428.29 55.6832 425.326 54.6733 422.896 52.7129C420.703 50.9307 419.34 48.6733 418.747 45.8812H445.539C446.725 45.8812 447.732 45.4653 448.503 44.7525C449.274 43.9802 449.688 43.0297 449.688 41.8416C449.688 37.8614 448.918 34.297 447.436 31.2079C445.895 28.1188 443.702 25.6238 440.797 23.901V23.7822ZM441.153 38.2772H418.747C419.399 35.6634 420.644 33.5248 422.481 31.8614C424.556 30.0792 427.283 29.1287 430.602 29.1287C433.625 29.1287 435.996 30.0198 437.833 31.802C439.493 33.4059 440.619 35.604 441.094 38.2178L441.153 38.2772Z" fill="#3E66B0"/>
<path d="M487.861 23.9604C484.72 22.1188 481.104 21.1683 477.251 21.1683C473.398 21.1683 469.783 22.1188 466.582 23.9604C463.381 25.802 460.832 28.3564 458.995 31.6238C457.157 34.8317 456.268 38.4554 456.268 42.4356C456.268 46.4158 457.098 49.9802 458.817 53.1881C460.536 56.396 462.907 58.9505 465.871 60.7921C468.834 62.6337 472.213 63.5842 475.829 63.5842C478.792 63.5842 481.578 62.9901 484.068 61.7426C485.965 60.8515 487.624 59.6634 489.106 58.2376V58.8317C489.106 60.1386 489.521 61.2079 490.41 62.099C491.299 62.9901 492.366 63.4059 493.67 63.4059C494.974 63.4059 496.041 62.9901 496.931 62.099C497.82 61.2079 498.235 60.1386 498.235 58.8317V42.495C498.235 38.5743 497.286 34.9505 495.449 31.6832C493.611 28.4752 491.062 25.9208 487.921 24.0198L487.861 23.9604ZM489.343 42.3762C489.343 44.8119 488.81 47.0099 487.743 48.9703C486.676 50.9307 485.253 52.4752 483.416 53.5446C481.578 54.6733 479.504 55.2079 477.192 55.2079C474.88 55.2079 472.806 54.6139 470.968 53.5446C469.131 52.4158 467.649 50.8713 466.582 48.9109C465.515 46.9505 464.981 44.7525 464.981 42.3168C464.981 39.8812 465.515 37.6238 466.582 35.6634C467.649 33.703 469.131 32.1584 470.968 31.0297C472.806 29.901 474.88 29.3663 477.192 29.3663C479.504 29.3663 481.578 29.901 483.416 31.0297C485.253 32.1584 486.735 33.703 487.743 35.6634C488.81 37.6238 489.343 39.8812 489.343 42.3168V42.3762Z" fill="#3E66B0"/>
<path d="M563.674 25.5644C560.888 22.5941 557.272 21.1089 552.767 21.1089C549.982 21.1089 547.373 21.6436 545.121 22.7129C543.165 23.6634 541.446 24.8515 540.023 26.396C538.779 24.8515 537.237 23.604 535.459 22.7129C533.385 21.6436 531.014 21.1089 528.406 21.1089C526.272 21.1089 524.256 21.4653 522.359 22.2376C520.996 22.7723 519.751 23.4851 518.684 24.3762C518.447 23.7822 518.092 23.2475 517.617 22.7723C516.788 21.9406 515.721 21.5248 514.417 21.5248C513.113 21.5248 512.046 21.9406 511.157 22.7723C510.267 23.604 509.852 24.7327 509.852 26.099V58.7129C509.852 60.0198 510.267 61.0891 511.157 61.9802C512.046 62.8713 513.113 63.2871 514.417 63.2871C515.721 63.2871 516.906 62.8713 517.736 61.9802C518.566 61.0891 518.981 60.0198 518.981 58.7129V38.0396C518.981 35.4851 519.692 33.4653 521.233 31.8614C522.715 30.2574 524.612 29.4851 526.983 29.4851C529.354 29.4851 531.014 30.1386 532.377 31.5644C533.681 32.9307 534.392 35.0099 534.392 37.802V58.7723C534.392 60.0792 534.807 61.1485 535.696 62.0396C536.585 62.9307 537.652 63.3465 538.956 63.3465C540.26 63.3465 541.387 62.9307 542.276 62.0396C543.106 61.1485 543.521 60.0792 543.521 58.7723V38.099C543.521 35.5445 544.232 33.5247 545.773 31.9208C547.255 30.3168 549.092 29.5446 551.404 29.5446C553.716 29.5446 555.435 30.198 556.798 31.6238C558.102 32.9901 558.814 35.0693 558.814 37.802V58.7723C558.814 60.0792 559.228 61.1485 560.118 62.0396C561.007 62.9307 562.074 63.3465 563.378 63.3465C564.682 63.3465 565.867 62.9307 566.697 62.0396C567.527 61.1485 567.942 60.0792 567.942 58.7723V37.802C567.942 32.6337 566.519 28.5347 563.793 25.5644H563.674Z" fill="#3E66B0"/>
<path d="M605.819 64C590.466 64 579.323 51.4059 579.323 34.0594C579.323 16.7129 590.466 4.23762 605.878 4C606.885 4 611.568 3.88119 616.725 6.07921C619.155 7.14851 620.341 9.94059 619.274 12.4356C618.207 14.8713 615.421 16.0594 612.932 14.9901C609.553 13.5644 606.293 13.6832 606.293 13.6832C606.233 13.6832 606.115 13.6832 606.056 13.6832C594.319 13.802 588.984 24.3168 588.984 34.0594C588.984 43.802 594.201 54.3168 605.819 54.3168C616.192 54.3168 620.341 51.7624 622.771 37.2673L624.727 26.0396C627.454 12.5545 637.175 4.89109 651.282 4.89109C662.722 4.89109 675.111 13.7426 675.585 30.0792C675.585 30.198 676.119 43.802 665.271 53.7228H671.139C673.807 53.7228 676 55.9208 676 58.5941C676 61.2673 673.807 63.4654 671.139 63.4654H640.198C637.59 63.4654 635.515 61.4455 635.397 58.8317C635.278 56.2772 637.175 54.0198 639.783 53.7822C651.164 52.7129 658.988 48.4951 663.078 41.3069C666.16 35.8416 665.983 30.5545 665.983 30.4951C665.686 20.0396 658.395 14.6337 651.342 14.6337C641.798 14.6337 636.049 19.0891 634.27 27.9406L632.314 39.0495C629.291 57.1089 621.882 64.1782 605.878 64.1782L605.819 64Z" fill="#6CC4BF"/>
</g>
<rect x="324" y="27" width="14" height="14" fill="#0D6FFC"/>
<defs>
<clipPath id="clip0_22_14">
<rect width="309" height="60" fill="white" transform="translate(367 4)"/>
</clipPath>
</defs>
</svg>
