<svg width="295" height="69" viewBox="0 0 295 69" fill="none" xmlns="http://www.w3.org/2000/svg">
<path d="M294.861 68.7998H0V65.2891H294.861V68.7998ZM294.861 61.7793H0V54.7588H294.861V61.7793ZM20.3896 0C23.253 6.42008e-05 25.6974 0.111348 27.7188 0.335938C29.7957 0.560557 31.5647 0.868748 33.0244 1.26172C34.5406 1.65484 35.8056 2.13275 36.8164 2.69434C37.826 3.25526 38.7513 3.87295 39.5928 4.5459C42.0639 6.56779 43.8919 9.04338 45.0713 11.9639C46.3064 14.8277 46.9219 17.8609 46.9219 21.0615C46.9218 22.6329 46.7584 24.2329 46.4219 25.8604C46.1411 27.4329 45.689 28.9529 45.0713 30.4131C44.5099 31.8162 43.8336 33.1343 43.0479 34.3691C42.2616 35.5485 41.3644 36.5639 40.3535 37.4062C39.2871 38.3042 38.1929 39.091 37.0703 39.7646C35.9477 40.4382 34.6814 40.9952 33.2783 41.4443C31.8743 41.8936 30.2698 42.2343 28.4727 42.459C26.6764 42.6834 24.5714 42.7949 22.1582 42.7949H15.2471V47.7383H0V0H20.3896ZM77.6777 28.0547C76.0491 28.1109 74.5558 28.248 73.208 28.4727C71.861 28.6973 70.6803 29.117 69.6699 29.7344C68.7155 30.352 67.9551 31.2239 67.3936 32.3467C66.8882 33.4698 66.6397 34.9048 66.6396 36.6455V47.7383H52.6533V15.584H65.7969V20.5547H65.9678C66.2485 19.9935 66.6425 19.3436 67.1475 18.6143C67.6523 17.83 68.3229 17.0992 69.1631 16.4268C70.0617 15.7529 71.1883 15.1895 72.5361 14.7402C73.94 14.235 75.6563 13.9863 77.6777 13.9863V28.0547ZM98.2871 47.7383H84.3008V15.584H98.2871V47.7383ZM133.896 13.9863C136.143 13.9863 138.363 14.3789 140.554 15.165C142.798 15.9509 144.569 16.902 145.86 18.0244C146.478 18.5855 147.095 19.2615 147.712 20.0469C148.386 20.7767 148.975 21.7343 149.48 22.9131C149.986 24.0924 150.412 25.5263 150.749 27.2109C151.086 28.8393 151.249 30.8056 151.249 33.1074V47.7383H137.271V36.8164C137.27 35.9743 137.211 35.0177 137.099 33.9512C137.042 32.8279 136.787 31.76 136.338 30.749C135.889 29.7383 135.161 28.8926 134.15 28.2188C133.196 27.489 131.787 27.129 129.935 27.1289C127.914 27.1293 126.373 27.5229 125.307 28.3086C124.24 29.0387 123.454 29.9358 122.948 31.0029C122.443 32.0138 122.128 33.081 122.016 34.2041C121.96 35.2701 121.934 36.1688 121.934 36.8984V47.7383H107.947V15.584H121.008V20.5547H121.179C121.516 19.9936 121.962 19.3434 122.522 18.6143C123.14 17.8289 123.927 17.1001 124.881 16.4268C125.892 15.7528 127.131 15.1895 128.591 14.7402C130.051 14.2352 131.819 13.9864 133.896 13.9863ZM177.946 15.584H184.687V26.1963H177.946V47.7383H163.961V26.1963H157.05V15.584H163.961V0H177.946V15.584ZM212.871 13.9863C216.409 13.9863 219.697 14.661 222.729 16.0088C225.761 17.3005 228.377 19.0954 230.566 21.3975C232.756 23.6998 234.466 26.426 235.701 29.5703C236.937 32.659 237.553 35.9728 237.553 39.5107C237.553 40.4636 237.527 41.193 237.471 41.6982C237.415 42.1474 237.329 42.6583 237.217 43.2197H202.169C202.449 44.965 203.037 46.4704 203.924 47.7383H189.855C188.86 45.0275 188.354 42.143 188.354 39.0859C188.355 35.8295 188.944 32.6842 190.123 29.6523C191.359 26.6198 193.074 23.9539 195.265 21.6514C197.454 19.3493 200.036 17.4948 203.012 16.0908C206.045 14.6867 209.333 13.9864 212.871 13.9863ZM294.861 47.7383H277.921C278.286 47.3995 278.635 47.0484 278.942 46.6689C279.896 45.4348 280.565 44.1151 280.958 42.7129C281.407 41.3088 281.637 39.9856 281.637 38.75C281.636 37.3466 281.381 35.9434 280.876 34.54C280.37 33.136 279.611 31.8981 278.6 30.8311C277.645 29.7093 276.412 28.8101 274.897 28.1367C273.437 27.4066 271.747 27.0401 269.838 27.04C267.817 27.0404 266.047 27.4071 264.531 28.1367C263.073 28.81 261.839 29.7366 260.829 30.9141C259.875 32.0367 259.14 33.302 258.635 34.7051C258.186 36.0523 257.963 37.4027 257.963 38.75C257.963 40.5468 258.245 42.2046 258.807 43.7207C259.424 45.1799 260.263 46.4451 261.329 47.5117C261.409 47.5913 261.501 47.6615 261.583 47.7383H245.334C244.432 44.9743 243.977 42.0085 243.977 38.8389C243.977 34.9083 244.626 31.3971 245.917 28.3086C247.208 25.2203 248.918 22.6056 251.052 20.4717C253.242 18.3376 255.718 16.7331 258.47 15.666C261.276 14.5439 264.168 13.9866 267.143 13.9863C269.221 13.9863 271.023 14.2089 272.539 14.6582C274.109 15.107 275.428 15.639 276.494 16.2559C277.616 16.8167 278.516 17.4076 279.189 18.0244C279.919 18.6421 280.483 19.1538 280.876 19.5469V0H294.861V47.7383ZM212.953 25.7783C211.157 25.7786 209.61 26.0607 208.318 26.6221C207.029 27.1831 205.965 27.8857 205.124 28.7266C204.282 29.5686 203.633 30.4667 203.184 31.4209C202.791 32.3187 202.508 33.1057 202.34 33.7793H223.573C223.405 33.1056 223.09 32.3189 222.641 31.4209C222.247 30.4671 221.632 29.5682 220.79 28.7266C219.948 27.8843 218.879 27.1836 217.588 26.6221C216.296 26.0605 214.75 25.7783 212.953 25.7783ZM15.2471 28.8086H21.7334C22.4635 28.8086 23.3935 28.7827 24.5166 28.7266C25.6955 28.6141 26.7902 28.332 27.8008 27.8828C28.8669 27.4338 29.7654 26.7058 30.4951 25.6963C31.2811 24.6296 31.6735 23.1677 31.6738 21.3154C31.6738 19.462 31.2814 18.0534 30.4951 17.0986C29.7091 16.0887 28.7514 15.3611 27.6289 14.9121C26.5631 14.4637 25.4145 14.2067 24.1807 14.1504C23.0013 14.0381 21.986 13.9863 21.1436 13.9863H15.2471V28.8086ZM98.2871 10.6133H84.3008V0H98.2871V10.6133Z" fill="#0D6FFC"/>
</svg>
